<svg version="1.1" id="图层_1" xmlns="http://www.w3.org/2000/svg" xmlns:xlink="http://www.w3.org/1999/xlink" x="0px" y="0px"
	 viewBox="0 0 64 64" enable-background="new 0 0 64 64" xml:space="preserve">
<path fill="#FFFFFF" d="M50.5,32.9c-0.3-1.1-0.9-1.9-1.7-2.2c-0.3-0.1-0.6-0.2-0.9-0.2c-0.8,0-1.6,0.4-2.2,0.8
	c-1.4-4-4.3-10.1-9-10.1l-16.9,0c-5.3,0-8.1,6.1-9.4,10.2c-0.5-0.2-1.1-0.5-1.8-0.5c-0.4,0-0.7,0.1-1,0.2c-0.8,0.4-1.4,1.1-1.7,2.3
	c-0.6,2.2,0.2,4,2.2,5.1c-0.8,2.1-1.6,4.8-1.6,6.9c0,2.9,0.8,5,1.3,6l0,4.2c0,0.3,0,1.6,0.8,2.6c0.6,0.8,1.5,1.2,2.5,1.2h3.2
	c1.6,0,3.3-1.3,3.3-3.6v-1.3h21.7l0,1.2c0,0.3,0,1.6,0.8,2.6c0.6,0.8,1.5,1.2,2.4,1.2l2.7,0c1.6,0,3.3-1.3,3.3-3.6v-3.9
	c0.6-1,1.3-3,1.3-6.5c0-2-0.4-4.4-1.3-6.9C49.4,37.7,51.3,36,50.5,32.9z M12.2,34.7c0.7-2.7,3-10.9,7.7-10.9l16.9,0
	c3.4,0,6.2,6.9,7.3,10.9C44.1,34.7,12.2,34.7,12.2,34.7z M47.1,45.3c0,3.5-0.7,4.9-1,5.4L45.8,51v4.7c0,0.7-0.3,1-0.6,1l-2.7,0
	c-0.2,0-0.3-0.1-0.4-0.2c-0.2-0.2-0.2-0.7-0.2-0.9l0-3.9h-27v4c0,0.7-0.3,1-0.6,1H11c-0.2,0-0.3-0.1-0.4-0.2
	c-0.2-0.2-0.2-0.7-0.2-0.9l0-4.9l-0.1-0.3c-0.3-0.7-1.1-2.5-1.1-5.1c0-2.8,2-7.6,2.6-8.8h33.1C45.8,38.5,47.1,42,47.1,45.3z
	 M46.6,33.8c0.1-0.1,0.2-0.1,0.4-0.2c0.5-0.3,0.7-0.4,0.9-0.4c0,0.1,0.1,0.2,0.1,0.4c0.2,0.9,0,1.6-0.5,2.2
	c-0.3-0.7-0.6-1.3-0.7-1.6C46.7,34.1,46.6,34,46.6,33.8z M9.7,33.9c-0.1,0.4-0.2,0.9-0.3,1.3c-0.1,0.2-0.2,0.5-0.3,0.7
	c-0.9-0.7-0.7-1.5-0.6-2c0.1-0.3,0.2-0.4,0.2-0.5C8.9,33.5,9.5,33.8,9.7,33.9C9.7,33.9,9.7,33.9,9.7,33.9z"/>
<path fill="#FFFFFF" d="M15.7,39.1c-2,0-3.6,1.6-3.6,3.6s1.6,3.6,3.6,3.6c2,0,3.6-1.6,3.6-3.6C19.3,40.7,17.7,39.1,15.7,39.1z
	 M15.7,44.6c-1,0-1.9-0.8-1.9-1.9s0.8-1.9,1.9-1.9c1,0,1.9,0.8,1.9,1.9C17.6,43.7,16.7,44.6,15.7,44.6z M40.6,39.1
	c-2,0-3.6,1.6-3.6,3.6s1.6,3.6,3.6,3.6c2,0,3.6-1.6,3.6-3.6C44.3,40.7,42.6,39.1,40.6,39.1z M40.6,44.6c-1,0-1.9-0.8-1.9-1.9
	s0.8-1.9,1.9-1.9c1,0,1.9,0.8,1.9,1.9C42.5,43.7,41.7,44.6,40.6,44.6z M20.6,45.6h14.6v1.8H20.6V45.6z M20.6,48.5h14.6v1.8H20.6
	V48.5z"/>
<path fill="#FFFFFF" d="M57.3,16.5c1.8-0.5,3.2-1.7,3.9-3.3l-3.5,0.9l-2.8-2.9L56,7.4l3.5-0.9c-1.4-1.1-3.2-1.6-5-1.1
	C52.3,6,50.6,7.8,50.2,10c0,0-0.1,0-0.1,0l-15.5,3.9c-1.5,0.4-2.5,1.7-2.1,3l0,0c0.3,1.3,1.8,2,3.3,1.6l15.5-3.9c0,0,0.1,0,0.1,0
	C52.7,16.3,55,17.1,57.3,16.5z M34.5,16.3c-0.1-0.5,0.2-1,0.7-1.1c0.5-0.1,1,0.2,1.1,0.7c0.1,0.5-0.2,1-0.7,1.1
	C35.1,17.1,34.6,16.8,34.5,16.3z"/>
<path fill="#FFFFFF" d="M51,17.8c0.2-0.3,0.2-0.6,0-0.9l0,0c-0.2-0.3-0.7-0.4-1.1-0.2l-1.4,1l-7-10.3l0.1-0.1L40.8,6l-1.9-1.4
	l-0.2,0.1l0.6,2.3l0.9,1.3l0.1-0.1l7,10.3l-1.4,1c-0.4,0.2-0.5,0.7-0.2,1.1c0.2,0.3,0.5,0.4,0.9,0.3c0.7-0.2,1.5,0,1.9,0.7
	c0.4,0.6,0.4,1.4-0.1,2c-0.2,0.3-0.2,0.6-0.1,0.9l4.5,6.7c0.2,0.3,0.7,0.4,1.1,0.2l4.1-2.8c0.4-0.2,0.5-0.7,0.2-1.1l-4.5-6.7
	c-0.2-0.3-0.5-0.4-0.8-0.3c-0.7,0.2-1.5,0-1.9-0.7C50.5,19.2,50.6,18.4,51,17.8z"/>
</svg>
