<svg version="1.1" id="图层_1" xmlns="http://www.w3.org/2000/svg" xmlns:xlink="http://www.w3.org/1999/xlink" x="0px" y="0px"
	 viewBox="0 0 64 64" enable-background="new 0 0 64 64" xml:space="preserve">
<path fill="#FFFFFF" d="M60.4,34.5c-0.3-1-0.8-1.7-1.5-2c-0.3-0.1-0.5-0.2-0.8-0.2c-0.7,0-1.4,0.4-2,0.7c-1.3-3.6-3.9-9.1-8.2-9.1
	l-15.3,0c-4.8,0-7.4,5.6-8.6,9.2c-0.5-0.2-1-0.4-1.6-0.4c-0.3,0-0.6,0.1-0.9,0.2c-0.7,0.3-1.2,1-1.5,2.1c-0.5,2,0.2,3.6,2,4.6
	c-0.7,1.9-1.4,4.4-1.4,6.2c0,2.6,0.7,4.5,1.1,5.5l0,3.8c0,0.3,0,1.4,0.7,2.3c0.5,0.7,1.3,1.1,2.2,1.1h2.9c1.4,0,3-1.2,3-3.3v-1.2
	h19.6l0,1.1c0,0.3,0,1.4,0.7,2.3c0.5,0.7,1.3,1.1,2.2,1.1l2.5,0c1.5,0,3-1.1,3-3.3v-3.5c0.5-0.9,1.2-2.7,1.2-5.9
	c0-1.8-0.4-3.9-1.2-6.3C59.4,38.8,61.1,37.2,60.4,34.5z M25.8,36.1c0.6-2.5,2.7-9.9,6.9-9.9l15.3,0c3.1,0,5.6,6.3,6.6,9.9
	C54.6,36.1,25.8,36.1,25.8,36.1z M57.3,45.7c0,3.2-0.7,4.5-0.9,4.9l-0.2,0.3v4.2c0,0.7-0.3,0.9-0.6,0.9l-2.5,0c-0.2,0-0.3,0-0.3-0.2
	c-0.2-0.2-0.2-0.6-0.2-0.8l0-3.5H28.2v3.6c0,0.6-0.3,0.9-0.6,0.9h-2.9c-0.2,0-0.3,0-0.4-0.2c-0.2-0.2-0.2-0.6-0.2-0.8l0-4.4L24,50.4
	c-0.3-0.6-1-2.3-1-4.7c0-2.5,1.8-6.9,2.4-8h30C56.1,39.5,57.3,42.7,57.3,45.7z M56.9,35.3c0.1-0.1,0.2-0.1,0.3-0.2
	c0.4-0.3,0.7-0.4,0.8-0.4c0,0.1,0.1,0.2,0.1,0.4c0.2,0.8,0,1.5-0.5,2c-0.3-0.7-0.5-1.2-0.7-1.4C56.9,35.6,56.9,35.4,56.9,35.3z
	 M23.5,35.4c-0.1,0.4-0.2,0.8-0.3,1.2c-0.1,0.2-0.2,0.4-0.3,0.7c-0.8-0.6-0.7-1.4-0.6-1.8c0.1-0.3,0.1-0.4,0.2-0.5
	C22.8,35,23.2,35.3,23.5,35.4C23.4,35.4,23.5,35.4,23.5,35.4z"/>
<path fill="#FFFFFF" d="M28.9,40.1c-1.8,0-3.3,1.5-3.3,3.3c0,1.8,1.5,3.3,3.3,3.3c1.8,0,3.3-1.5,3.3-3.3
	C32.2,41.5,30.7,40.1,28.9,40.1z M28.9,45.1c-0.9,0-1.7-0.8-1.7-1.7c0-0.9,0.8-1.7,1.7-1.7c0.9,0,1.7,0.8,1.7,1.7
	C30.6,44.3,29.8,45.1,28.9,45.1z M51.5,40.1c-1.8,0-3.3,1.5-3.3,3.3c0,1.8,1.5,3.3,3.3,3.3c1.8,0,3.3-1.5,3.3-3.3
	C54.8,41.5,53.3,40.1,51.5,40.1z M51.5,45.1c-0.9,0-1.7-0.8-1.7-1.7c0-0.9,0.8-1.7,1.7-1.7c0.9,0,1.7,0.8,1.7,1.7
	C53.2,44.3,52.4,45.1,51.5,45.1z M33.3,46h13.2v1.6H33.3V46z M33.3,48.6h13.2v1.6H33.3V48.6z"/>
<path fill="#FFFFFF" d="M8.8,28.5v17.8c0,0.7,0.6,1.3,1.3,1.3h4.3c0.7,0,1.3-0.6,1.3-1.3V28.5c0-0.4,0.3-0.7,0.7-0.7h4.1
	c0.6,0,0.9-0.8,0.5-1.2L12.7,19c-0.3-0.2-0.7-0.2-0.9,0l-8.2,7.6c-0.5,0.4-0.2,1.2,0.5,1.2h4.1C8.5,27.8,8.8,28.1,8.8,28.5z"/>
<path fill="#FFFFFF" d="M9.8,52.6H15c0.3,0,0.5-0.5,0.5-1.1l0,0c0-0.6-0.2-1.1-0.5-1.1H9.8c-0.3,0-0.5,0.5-0.5,1.1l0,0
	C9.3,52.2,9.5,52.6,9.8,52.6z"/>
</svg>
