<svg t="1501812661064" class="icon" style="" viewBox="0 0 1024 1024" version="1.1" xmlns="http://www.w3.org/2000/svg" p-id="889" xmlns:xlink="http://www.w3.org/1999/xlink" width="64" height="64"><defs><style type="text/css"></style></defs><path d="M353.30908322068024 1007.6153550163785h-51.45395128360462l42.301084617047884-222.38992021117247 39.332588913874034 0.24737548936287873-30.1797222473173 222.14254472180951zM376.8096875935612 610.8262212295746l30.427095702844046 1.7316243578678767-23.747977828407684 172.91496470712633-39.332588913874034-0.24737548936287873 32.653471039437676-174.3992135756313z" fill="#ffffff" p-id="890"></path><path d="M392.88904762391724 520.7818034325123l27.953348944559806 0.742124434252499-13.605613272071722 91.03391772067766-30.427095702844046-0.49475097872575746 16.079360030355957-91.28129117620439zM701.3653879715268 1007.6153550163785L671.1856657242092 785.4728102945686l39.57996440323691-0.24737548936287873 42.301084617047884 222.38992021117247h-51.701326772967505z" fill="#ffffff" p-id="891"></path><path d="M678.1121590880085 610.8262212295746l32.653471039437676 174.3992135756313-39.57996440323691 0.24737548936287873-23.500602339044818-172.91496470712633 30.427095702844046-1.7316243578678767z" fill="#ffffff" p-id="892"></path><path d="M662.0327990576525 520.7818034325123l16.079360030355957 91.28129117620439-30.427095702844046 0.49475097872575746-13.605613272071722-91.03391772067766 27.953348944559806-0.742124434252499z" fill="#ffffff" p-id="893"></path><path d="M577.1832523003576 994.2571172336698l-11.626613424840965-153.8671069397604 37.353589066643266 1.978997813394618 16.326735519718838 154.11448242912323-42.05371116152114-2.2263733027574966zM582.6254967956522 666.4855456631676l-28.942846834339043-1.2368754129782562 9.64761561144635 123.4400112369163 32.158720060711914 1.484248868504998-12.863488837819224-123.68738469244308zM568.2777611231638 545.2719077290091l-22.758479938628444-0.742124434252499 6.679119908272489 84.35479577856901 24.98485120754981 0.9894999236153778-8.90549117719385-84.60217126793192z" fill="#ffffff" p-id="894"></path><path d="M463.14348321936103 994.2571172336698l-42.05371116152114 1.978997813394618 17.563608898860956-154.11448242912323 37.353589066643266-1.7316223240317392-12.863486803983086 153.8671069397604zM460.17498548235125 666.4855456631676l-13.852986727598461 123.68738469244308 32.40609351623866-1.236873379142119 10.389742079534983-123.4400112369163-28.94284886817519 0.9894999236153778zM475.2648455890917 545.2719077290091l-9.40024012208347 84.60217126793192 24.98485120754981-0.742124434252499 7.173868853162111-84.35479781240518-22.758479938628444 0.49475097872575746z" fill="#ffffff" p-id="895"></path><path d="M656.0958056174691 447.5588721338947l-346.32468242681455-240.69565354428588c-10.389740045698844-7.173868853162111-23.995353317770565-5.442244495294233-30.67447119220692 3.9579976606253733-6.431744418909612 9.400242155919608-3.4632466818996153 23.005853394155196 6.9264933637992305 30.179720213481158l128.38750678732094 89.30229336280976c-4.947495550404613 0.9894999236153778-9.64761561144635 3.957995626789236-12.616113348456341 8.410742232304228l-48.98020452532037 77.67567790413268h-91.776040121094v-143.2299914046986c0-16.574108975245583-9.152866666556728-30.1797222473173-20.779480091397687-30.1797222473173s-20.779480091397687 13.605613272071722-20.779482125233823 30.1797222473173v220.16354690841496c0 16.574108975245583 9.152866666556728 30.1797222473173 20.779482125233823 30.1797222473173s20.779480091397687-13.605613272071722 20.779480091397687-30.1797222473173v-35.374593287084785h99.6920334085086c3.957995626789236 0 7.915993287414607-1.236873379142119 11.13186447995135-3.7106221712624947 4.452746605514993-1.236873379142119 8.658117721667107-3.957995626789236 11.379239969314222-8.16336674294135l53.68032458636212-85.34429570218443c2.473746758284238-3.957995626789236 3.4632466818996153-8.658117721667107 2.7211222476471164-13.110864327182101l192.457573453218 133.82975331645133c10.389740045698844 7.173868853162111 23.995353317770565 5.442244495294233 30.67447119220692-3.9579976606253733 6.679117874436353-9.152866666556728 3.4632466818996153-22.758479938628444-6.679117874436353-29.932346757954416z m126.90325791881598-152.63023356061822L377.79918548334064 26.77438502932057c-14.347737706324223-9.64761561144635-33.64296892921691-5.689619984657111-43.29058454066327 8.658117721667107L281.075649811842 113.85030508937251c-9.64761561144635 14.347737706324223-5.689619984657111 33.64296892921691 8.658117721667107 43.29058454066327l370.5674092001118 245.14839811596474c14.347737706324223 9.64761561144635 28.695473378812306 0.742124434252499 43.29058454066327-8.658115687830971l88.31279343919441-55.41194894422998c9.400242155919608-14.347737706324223 5.442244495294233-33.64296892921691-8.90549117719385-43.29058454066327z" fill="#ffffff" p-id="896"></path></svg>