<?xml version="1.0" encoding="utf-8"?>
<!-- Generator: Adobe Illustrator 18.0.0, SVG Export Plug-In . SVG Version: 6.00 Build 0)  -->
<!DOCTYPE svg PUBLIC "-//W3C//DTD SVG 1.1//EN" "http://www.w3.org/Graphics/SVG/1.1/DTD/svg11.dtd">
<svg version="1.1" id="图层_1" xmlns="http://www.w3.org/2000/svg" xmlns:xlink="http://www.w3.org/1999/xlink" x="0px" y="0px"
	 viewBox="0 0 30 30" enable-background="new 0 0 30 30" xml:space="preserve">
<g>
	<g>
		<path fill="#25CC5D" d="M4,27.2L4,27.2c-1.8,0-3.3-1.4-3.3-3.2v0c0-1.8,1.4-3.2,3.2-3.2H4c1.8,0,3.2,1.4,3.2,3.2v0
			C7.2,25.8,5.8,27.2,4,27.2z M4,22.1C2.9,22.1,2,22.9,2,24v0C2,25.1,2.9,26,4,26H4C5.1,26,6,25.1,6,24v0C6,22.9,5.1,22.1,4,22.1
			L4,22.1z"/>
	</g>
	<g>
		<path fill="#25CC5D" d="M15,27.2L15,27.2c-1.8,0-3.3-1.4-3.3-3.2v-4.2c0-1.8,1.4-3.2,3.2-3.2H15c1.8,0,3.2,1.4,3.2,3.2V24
			C18.2,25.8,16.8,27.2,15,27.2z M15,17.9c-1.1,0-1.9,0.9-1.9,1.9V24c0,1.1,0.9,1.9,1.9,1.9H15c1.1,0,1.9-0.9,1.9-1.9v-4.2
			C17,18.7,16.1,17.9,15,17.9L15,17.9z"/>
	</g>
	<g>
		<path fill="#25CC5D" d="M26,27.2L26,27.2c-1.8,0-3.3-1.4-3.3-3.2v-9.5c0-1.8,1.4-3.2,3.2-3.2H26c1.8,0,3.2,1.4,3.2,3.2V24
			C29.2,25.8,27.8,27.2,26,27.2z M26,12.6c-1.1,0-1.9,0.9-1.9,1.9V24c0,1.1,0.9,1.9,1.9,1.9H26c1.1,0,1.9-0.9,1.9-1.9v-9.5
			C28,13.5,27.1,12.6,26,12.6L26,12.6z"/>
	</g>
	<g>
		<g>
			<path fill="#25CC5D" d="M1.8,18.2c0,0,0.1,0,0.2,0c0.1,0,0.2,0,0.3,0c0.1,0,0.2,0,0.4-0.1c0.5-0.1,1.3-0.4,2.2-0.7
				c0.9-0.3,1.9-0.7,3-1.2c0.5-0.2,1.1-0.5,1.6-0.8c0.6-0.3,1.1-0.6,1.7-0.9c0.3-0.2,0.6-0.3,0.8-0.5c0.1-0.1,0.3-0.2,0.4-0.2
				c0.1-0.1,0.3-0.2,0.4-0.2c0.5-0.3,1-0.7,1.5-1c0.2-0.2,0.5-0.3,0.7-0.5c0.2-0.2,0.4-0.3,0.7-0.5c0.2-0.2,0.4-0.3,0.6-0.5
				c0.2-0.2,0.4-0.3,0.6-0.5c0.2-0.1,0.4-0.3,0.5-0.4c0.2-0.1,0.3-0.3,0.5-0.4c0.3-0.2,0.5-0.5,0.8-0.6c0.2-0.2,0.4-0.3,0.5-0.4
				c0.1-0.1,0.2-0.1,0.2-0.1l0.8,0.8c0,0-0.1,0.1-0.2,0.2c-0.1,0.1-0.3,0.3-0.5,0.5c-0.1,0.1-0.2,0.2-0.3,0.3
				c-0.1,0.1-0.1,0.1-0.2,0.2c-0.1,0.1-0.1,0.1-0.2,0.2c-0.1,0.1-0.3,0.3-0.5,0.4c-0.2,0.1-0.4,0.3-0.5,0.4
				c-0.2,0.1-0.4,0.3-0.6,0.5c-0.2,0.2-0.4,0.3-0.7,0.5c-0.2,0.2-0.5,0.3-0.7,0.5c-0.3,0.2-0.5,0.3-0.8,0.5
				c-0.5,0.3-1.1,0.6-1.6,0.9c-0.1,0.1-0.3,0.2-0.4,0.2c-0.1,0.1-0.3,0.1-0.4,0.2c-0.3,0.1-0.6,0.3-0.9,0.4
				c-0.6,0.3-1.2,0.5-1.8,0.8c-0.6,0.3-1.2,0.5-1.7,0.7c-0.6,0.2-1.1,0.4-1.6,0.6c-0.5,0.2-1,0.3-1.5,0.5C4.5,17.8,4.1,18,3.7,18
				c-0.4,0.1-0.7,0.1-1,0.2c-0.1,0-0.3,0-0.4,0.1c-0.1,0-0.2,0-0.3,0c-0.1,0-0.2,0-0.2,0L1.8,18.2z"/>
		</g>
		<g>
			<g>
				<polygon fill="#25CC5D" points="25.1,2.8 20.5,12 19.4,9.2 16.4,8.7 				"/>
			</g>
		</g>
	</g>
</g>
</svg>
