<?xml version="1.0" standalone="no"?><!DOCTYPE svg PUBLIC "-//W3C//DTD SVG 1.1//EN" "http://www.w3.org/Graphics/SVG/1.1/DTD/svg11.dtd"><svg t="1501827435366" class="icon" style="" viewBox="0 0 1024 1024" version="1.1" xmlns="http://www.w3.org/2000/svg" p-id="9915" xmlns:xlink="http://www.w3.org/1999/xlink" width="64" height="64"><defs><style type="text/css"></style></defs><path d="M565.504 633.344H338.816c-10.88 0-17.92-5.12-19.648-14.208-0.32-1.856-0.32-3.712-0.32-5.568V413.824c0-12.672 6.656-19.392 19.2-19.392h227.456v-6.08-177.728c0-8.192 3.84-14.72 10.24-17.152a16.448 16.448 0 0 1 19.52 4.48c3.2 3.456 6.72 6.656 9.984 9.984L729.6 334.976l159.744 163.072c8.832 9.024 8.896 18.56 0.128 27.52-76.16 77.824-152.32 155.712-228.608 233.472-21.632 22.144-43.456 44.16-65.088 66.304-5.568 5.696-11.776 8.192-19.392 5.248-7.424-2.88-10.88-8.832-10.88-18.24v-172.16-6.848zM428.608 195.328v67.264H255.36c-35.328 0-61.312 26.688-61.312 62.912 0 125.376 0.192 250.688-0.192 376-0.064 33.152 24.576 57.024 47.36 61.44 5.056 0.896 10.24 1.344 15.36 1.344 55.232 0.128 110.464 0.064 165.76 0.064h6.208v66.944c-0.832 0.128-1.728 0.512-2.624 0.512-58.752 0-117.504 0.64-176.192-0.256-57.408-0.896-108.224-45.44-119.168-103.104a134.4 134.4 0 0 1-2.304-24.832c-0.192-126.72-0.512-253.44 0-380.096 0.256-52.928 25.984-90.88 70.848-115.584 15.808-8.704 33.28-12.672 51.328-12.672 58.24-0.192 116.48-0.064 174.72-0.064l3.456 0.128z" p-id="9916" fill="#ffffff"></path></svg>