<svg version="1.1" xmlns="http://www.w3.org/2000/svg" xmlns:xlink="http://www.w3.org/1999/xlink" x="0px" y="0px"
	 width="64px" height="64px" viewBox="0 0 64 64" enable-background="new 0 0 64 64" xml:space="preserve">
<g>
	<defs>
		<rect id="SVGID_1_" x="7.082" y="2.899" width="49.836" height="58.202"/>
	</defs>
	<clipPath id="SVGID_2_">
		<use xlink:href="#SVGID_1_"  overflow="visible"/>
	</clipPath>
	<path clip-path="url(#SVGID_2_)" fill="none" stroke="#FFFFFF" stroke-width="6" stroke-miterlimit="10" d="M22.602,30.149
		h-12.52V5.899h15.145c5.973,0,10.813,4.841,10.813,10.812C36.039,24.134,30.023,30.149,22.602,30.149z"/>
	<rect x="7.082" y="3.399" clip-path="url(#SVGID_2_)" fill="#FFFFFF" width="6" height="51.901"/>
	<path clip-path="url(#SVGID_2_)" fill="none" stroke="#FFFFFF" stroke-miterlimit="10" d="M41.854,54.773
		c-1.392-0.631-2.008-2.273-1.375-3.666c0.631-1.391,2.273-2.008,3.666-1.375c0.117,0.053,0.226,0.115,0.332,0.182
		c0.217-1.105,0.279-2.26,0.164-3.439c-0.115-1.178-0.4-2.299-0.826-3.342c-0.092,0.086-0.187,0.168-0.291,0.242
		c-1.243,0.891-2.974,0.604-3.863-0.641c-0.889-1.244-0.602-2.973,0.643-3.863c0.103-0.074,0.211-0.137,0.319-0.195
		c-1.72-1.498-3.864-2.501-6.2-2.818c0.028,0.121,0.053,0.245,0.064,0.372c0.148,1.522-0.965,2.876-2.486,3.026
		c-1.521,0.148-2.876-0.966-3.025-2.488c-0.012-0.127-0.013-0.253-0.008-0.377c-2.232,0.762-4.142,2.161-5.539,3.965
		c0.119,0.035,0.237,0.076,0.353,0.129c1.393,0.631,2.009,2.273,1.376,3.666s-2.273,2.008-3.666,1.375
		c-0.117-0.053-0.227-0.115-0.332-0.182c-0.217,1.105-0.28,2.26-0.165,3.439c0.114,1.18,0.401,2.301,0.827,3.344
		c0.091-0.086,0.186-0.17,0.291-0.244c1.244-0.889,2.973-0.604,3.863,0.641c0.889,1.244,0.602,2.975-0.642,3.863
		c-0.104,0.074-0.212,0.137-0.321,0.195c1.719,1.498,3.864,2.502,6.201,2.818c-0.029-0.123-0.053-0.246-0.064-0.373
		c-0.149-1.521,0.965-2.877,2.486-3.023c1.522-0.15,2.877,0.965,3.024,2.486c0.013,0.127,0.013,0.254,0.008,0.377
		c2.231-0.762,4.142-2.16,5.539-3.965C42.088,54.867,41.971,54.828,41.854,54.773z"/>
	<circle clip-path="url(#SVGID_2_)" fill="none" stroke="#FFFFFF" stroke-miterlimit="10" cx="32.817" cy="47.629" r="3.574"/>
	<path clip-path="url(#SVGID_2_)" fill="none" stroke="#FFFFFF" stroke-miterlimit="10" d="M53.922,59.348
		c-0.563-0.48-0.633-1.326-0.152-1.891c0.479-0.563,1.324-0.633,1.89-0.152c0.048,0.041,0.091,0.084,0.13,0.129
		c0.248-0.486,0.432-1.016,0.534-1.58s0.119-1.123,0.06-1.666c-0.054,0.027-0.109,0.053-0.168,0.074
		c-0.697,0.25-1.465-0.115-1.713-0.813c-0.25-0.697,0.114-1.465,0.812-1.713c0.058-0.021,0.116-0.037,0.175-0.049
		c-0.602-0.926-1.466-1.678-2.512-2.137c-0.004,0.061-0.008,0.121-0.02,0.182c-0.134,0.729-0.832,1.211-1.561,1.078
		s-1.211-0.83-1.078-1.561c0.011-0.061,0.027-0.117,0.047-0.176c-1.141,0.059-2.216,0.455-3.107,1.109
		c0.052,0.033,0.101,0.066,0.147,0.107c0.565,0.479,0.633,1.326,0.154,1.891c-0.48,0.563-1.326,0.633-1.89,0.152
		c-0.049-0.041-0.091-0.084-0.132-0.129c-0.247,0.486-0.431,1.016-0.534,1.58c-0.103,0.564-0.119,1.123-0.059,1.666
		c0.055-0.027,0.109-0.053,0.168-0.074c0.697-0.25,1.464,0.115,1.713,0.813s-0.113,1.465-0.813,1.713
		c-0.057,0.021-0.115,0.035-0.174,0.049c0.601,0.926,1.467,1.678,2.513,2.135c0.002-0.059,0.008-0.119,0.019-0.182
		c0.133-0.727,0.832-1.211,1.561-1.076c0.729,0.133,1.211,0.83,1.078,1.561c-0.012,0.061-0.028,0.119-0.047,0.176
		c1.141-0.059,2.217-0.455,3.106-1.109C54.019,59.424,53.969,59.389,53.922,59.348z"/>
	<circle clip-path="url(#SVGID_2_)" fill="none" stroke="#FFFFFF" stroke-miterlimit="10" cx="50.664" cy="54.819" r="1.731"/>
</g>
</svg>
