<svg t="1501815857208" class="icon" style="" viewBox="0 0 1024 1024" version="1.1" xmlns="http://www.w3.org/2000/svg" p-id="8121" xmlns:xlink="http://www.w3.org/1999/xlink" width="64" height="64"><defs><style type="text/css"></style></defs><path d="M607.612 392.298c0-93.329-77.411-170.426-175.193-170.426H192.037v624.903h89.636V562.73h154.822c93.707 0 171.117-77.097 171.117-170.432z m-187.413 81.157h-142.6V311.143h142.6c40.743 0 81.485 40.578 81.485 81.155s-36.672 81.157-81.485 81.157z m403.354 219.123a56263.393 56263.393 0 0 1-12.227-12.168l-32.592-85.216c-8.151-16.232-24.447-24.35-32.598-24.35H583.165c-8.146 0-28.517 8.118-32.593 24.35L517.98 680.41s-8.151 8.114-12.226 12.168c-4.07 4.058-4.07 12.177-4.07 48.696 0 36.518 8.145 48.691 16.296 52.751l8.145 4.06v32.464c0 12.168 4.076 16.227 12.227 16.227h24.441c12.226 0 16.302 0 16.302-12.174v-32.464h175.192v32.464c0 12.174 8.145 12.174 16.296 12.174h24.447c12.221 0 12.221-4.06 12.221-16.227v-32.464l8.151-4.06c8.151-4.06 16.296-16.233 16.296-52.751-4.075-36.52-4.075-40.578-8.145-48.696z m-264.83-20.288c0-4.06 8.146-40.578 12.221-56.81 0-4.06 12.221-16.233 24.447-16.233h138.525c12.22 0 24.447 12.174 24.447 16.233 4.069 12.172 12.22 48.696 12.22 56.81 0 4.06-4.075 4.06-4.075 4.06H562.793s-8.145 0-4.07-4.06z m0 89.275c-12.226 0-24.447-12.178-24.447-24.352 0-12.172 12.221-24.346 24.447-24.346 12.221 0 24.442 12.174 24.442 24.346 4.075 16.234-8.146 24.352-24.442 24.352z m207.785 0c-12.221 0-24.442-12.178-24.442-24.352 0-12.172 12.221-24.346 24.442-24.346 12.226 0 24.447 12.174 24.447 24.346 4.075 16.234-8.145 24.352-24.447 24.352z" fill="#FFFFFF" p-id="8122"></path></svg>