<svg t="1512350701986" class="icon" style="" viewBox="0 0 1024 1024" version="1.1" xmlns="http://www.w3.org/2000/svg" p-id="1089" xmlns:xlink="http://www.w3.org/1999/xlink" width="16" height="16"><defs><style type="text/css"></style></defs><path d="M106.859636 618.818909c-31.982545 0-58.001455 21.806545-58.001454 48.608v129.736727c0 26.801455 26.018909 48.608 58.001454 48.608 31.985455 0 58.004364-21.806545 58.004364-48.608v-129.736727c0-26.801455-26.018909-48.608-58.004364-48.608z" fill="#3EB044" p-id="1090"></path><path d="M917.137455 178.231273c-31.985455 0-58.004364 21.800727-58.004364 48.602182v570.327272c0 26.801455 26.018909 48.608 58.004364 48.608 31.973818 0 57.995636-21.806545 58.004363-48.608V226.833455c0-26.801455-26.018909-48.602182-58.004363-48.602182z" fill="#C9C9CA" p-id="1091"></path><path d="M714.769455 288.712727c-31.985455 0-58.004364 21.800727-58.004364 48.602182v459.845818c0 26.801455 26.018909 48.608 58.004364 48.608 31.982545 0 58.001455-21.806545 58.001454-48.608V337.317818c0-26.804364-26.018909-48.605091-58.001454-48.605091zM512.136727 398.752c-31.985455 0-58.004364 21.806545-58.004363 48.608v349.803636c0 26.801455 26.018909 48.608 58.004363 48.608 31.982545 0 58.001455-21.806545 58.001455-48.608V447.36c-0.002909-26.801455-26.018909-48.608-58.001455-48.608zM309.498182 508.779636c-31.985455 0-58.004364 21.806545-58.004364 48.608v239.773091c0 26.801455 26.018909 48.608 58.004364 48.608s58.004364-21.806545 58.004363-48.608v-239.773091c0-26.801455-26.018909-48.608-58.004363-48.608z" fill="#3EB044" p-id="1092"></path></svg>