<svg t="1502935003081" class="icon" style="" viewBox="0 0 1024 1024" version="1.1" xmlns="http://www.w3.org/2000/svg" p-id="14803" xmlns:xlink="http://www.w3.org/1999/xlink" width="64" height="64"><defs><style type="text/css"></style></defs><path d="M955.156052 433.386548c-5.856381-22.712281-16.95209-37.58706-32.947389-44.259016-5.7694-2.397606-11.904121-3.614317-18.25476-3.614318-16.343223 0-31.434943 8.011464-43.355437 14.944364-28.211529-79.326696-86.46835-200.39303-179.079608-200.39303l-335.544149-0.121773c-105.262392 0-161.971975 122.039497-187.795107 201.853287-10.279111-4.951779-22.737864-9.800203-36.17899-9.800203-7.220449 0-14.102183 1.441838-20.427239 4.275373-16.074094 7.17747-27.221991 22.399149-33.129538 45.249577-11.069103 42.817178 4.64888 79.551824 43.199895 101.847619-15.074324 40.992623-31.730679 95.609545-31.730679 136.879484 0 56.701396 15.257495 98.910731 24.961508 120.023584l0.034792 83.948971c-0.260943 6.89913 0.156566 30.931476 16.177448 50.984184 12.016685 15.013949 29.367865 23.267936 48.847522 23.267937h64.113203c31.531134 0 65.043389-25.353434 65.043388-72.340585v-26.27441h431.151648l0.052188 24.623817c-0.208754 6.916527 0.330528 31.035854 16.282848 50.88083 11.93789 14.909571 29.133527 23.12979 48.412617 23.12979l54.425563 0.017397c32.191166 0 64.773236-24.867364 64.773236-72.392774V809.100582c11.998265-20.435425 25.622564-59.152215 25.622564-129.581264 0-40.540322-8.78406-86.711897-26.109658-137.330762 19.368116-13.540388 57.041134-48.607044 41.454134-108.802008z m-761.27432 36.057217c13.050224-54.285371 59.881832-217.005382 152.092977-217.005382l335.534939 0.139169c67.892273 0 123.698277 137.488351 145.846716 216.866213H193.881732z m693.426049 210.072483c0 70.063729-14.483876 97.885378-20.696368 106.574271l-4.926196 6.846941v93.1751c0 14.648628-6.334265 19.87977-12.268418 19.879769l-54.416353-0.017396c-3.335978 0-5.499248-1.007957-7.463996-3.440355-3.944845-4.916986-4.839215-13.050224-4.744047-17.307178l-0.147356-77.884858h-536.058952v78.788437c0 13.69286-6.299473 19.826558-12.537548 19.826558h-64.113203c-3.544733 0-5.820566-1.025353-7.837502-3.562129-3.961218-4.951779-4.822842-12.998035-4.700046-17.220197l-0.017396-97.051383-2.780323-5.54325c-6.67298-13.32754-22.181185-49.959855-22.181185-102.333689 0-55.623855 40.436968-150.434198 51.644217-175.647439h658.402371c17.785062 39.23663 44.842301 109.665679 44.842301 174.916798z m-10.462282-227.952712a157.176762 157.176762 0 0 0 7.350408-4.101411c9.575076-5.578042 14.666024-7.924483 17.368576-8.861832 0.747014 1.528819 1.755993 4.031826 2.762927 7.924483 4.483104 17.34197 0.903579 32.129768-10.634198 44.137243-6.27389-14.371312-11.616572-25.28385-14.735609-31.434943a974.344067 974.344067 0 0 0-2.112104-7.66354z m-733.166146 1.772366a650.785903 650.785903 0 0 0-5.665023 25.596982 976.500173 976.500173 0 0 0-6.5246 14.805194c-18.628266-14.19735-14.379499-30.670533-12.20702-39.081087 1.528819-5.907547 3.066849-8.828063 3.910053-10.095939 4.960988 0.712221 15.404852 6.134721 19.523659 8.271384 0.319272 0.172939 0.64059 0.329505 0.962931 0.503466z" fill="#ffffff" p-id="14804"></path><path d="M262.20891 555.340087c-39.949874 0-72.444962 32.495088-72.444962 72.444963 0 39.949874 32.495088 72.444962 72.444962 72.444962 39.941688 0 72.436776-32.495088 72.436776-72.444962 0-39.949874-32.495088-72.444962-72.436776-72.444963z m0 109.736287c-20.565385 0-37.291324-16.734126-37.291324-37.291324s16.724917-37.291324 37.291324-37.291325c20.557198 0 37.283138 16.734126 37.283138 37.291325-0.001023 20.557198-16.72594 37.291324-37.283138 37.291324z m495.968885-109.736287c-39.949874 0-72.444962 32.495088-72.444962 72.444963 0 39.949874 32.495088 72.444962 72.444962 72.444962 39.941688 0 72.436776-32.495088 72.436776-72.444962 0-39.949874-32.496112-72.444962-72.436776-72.444963z m0 109.736287c-20.565385 0-37.291324-16.734126-37.291324-37.291324s16.724917-37.291324 37.291324-37.291325c20.557198 0 37.283138 16.734126 37.283138 37.291325-0.001023 20.557198-16.72594 37.291324-37.283138 37.291324z m-397.787771 20.244067h289.703101v35.153638H360.390024v-35.153638z m0 57.413617h289.703101v35.153638H360.390024v-35.153638z" fill="#ffffff" p-id="14805"></path></svg>