<svg version="1.1" id="图层_1" xmlns="http://www.w3.org/2000/svg" xmlns:xlink="http://www.w3.org/1999/xlink" x="0px" y="0px"
	 width="64px" height="64px" viewBox="0 0 64 64" enable-background="new 0 0 64 64" xml:space="preserve">
<g>
	<defs>
		<rect id="SVGID_1_" x="4.19" y="0.874" width="55.621" height="62.253"/>
	</defs>
	<clipPath id="SVGID_2_">
		<use xlink:href="#SVGID_1_"  overflow="visible"/>
	</clipPath>
	<path clip-path="url(#SVGID_2_)" fill="#FFFFFF" d="M48.363,19.068c2.514-2.38,3.607-5.685,3.273-8.859l-4.867,4.607l-7.039-2.06
		l-1.672-7.14l4.865-4.608c-3.152-0.507-6.512,0.405-9.023,2.786c-3.121,2.955-4.064,7.332-2.781,11.121
		c-0.039,0.035-0.08,0.068-0.119,0.105L9.67,35.219c-2.055,1.945-2.379,4.941-0.723,6.689c1.655,1.748,4.664,1.588,6.719-0.357
		l21.328-20.198c0.041-0.037,0.076-0.077,0.113-0.115C40.82,22.724,45.242,22.023,48.363,19.068 M11.706,39.295
		c-0.641-0.676-0.605-1.75,0.078-2.396c0.685-0.648,1.758-0.625,2.398,0.053c0.641,0.676,0.605,1.75-0.077,2.396
		C13.42,39.996,12.347,39.973,11.706,39.295"/>
	<path clip-path="url(#SVGID_2_)" fill="#FFFFFF" d="M39.332,27.249c0.104-0.583-0.186-1.153-0.689-1.428l-0.053-0.028
		c-0.672-0.366-1.523-0.1-1.902,0.595l-1.492,2.737L15.117,18.172l0.153-0.281l-2.484-1.355l-4.31-0.611l-0.185,0.339l2.847,3.293
		l2.485,1.355l0.152-0.281l20.078,10.952l-1.492,2.738c-0.379,0.693-0.143,1.555,0.531,1.92c0.539,0.295,1.195,0.168,1.656-0.268
		c0.975-0.92,2.436-1.168,3.641-0.51c1.205,0.656,1.789,2.021,1.543,3.338c-0.117,0.621,0.133,1.244,0.672,1.537l12.996,7.09
		c0.672,0.365,1.523,0.1,1.902-0.594l4.326-7.934c0.379-0.693,0.143-1.555-0.529-1.92l-13.049-7.118
		c-0.504-0.275-1.139-0.21-1.572,0.191c-0.975,0.9-2.414,1.143-3.607,0.491C39.678,29.896,39.104,28.553,39.332,27.249"/>
	<polygon clip-path="url(#SVGID_2_)" fill="#FFFFFF" points="53.314,63.076 47.744,63.076 38.422,43.197 41.258,43.197 	"/>
	<polygon clip-path="url(#SVGID_2_)" fill="#FFFFFF" points="35.703,46.572 32.602,46.572 32.061,43.195 34.725,43.195 	"/>
	<polygon clip-path="url(#SVGID_2_)" fill="#FFFFFF" points="37.482,52.713 33.588,52.713 32.764,47.572 35.994,47.572 	"/>
	<polygon clip-path="url(#SVGID_2_)" fill="#FFFFFF" points="40.5,63.127 35.26,63.127 33.85,54.338 37.953,54.338 	"/>
	<polygon clip-path="url(#SVGID_2_)" fill="#FFFFFF" points="27.105,46.537 23.809,46.537 24.499,43.197 27.334,43.197 	"/>
	<polygon clip-path="url(#SVGID_2_)" fill="#FFFFFF" points="26.682,52.684 22.542,52.684 23.59,47.592 27.032,47.592 	"/>
	<polygon clip-path="url(#SVGID_2_)" fill="#FFFFFF" points="25.967,63.076 20.396,63.076 22.194,54.369 26.566,54.369 	"/>
	<polygon clip-path="url(#SVGID_2_)" fill="#FFFFFF" points="9.76,63.076 4.19,63.076 16.249,43.197 19.084,43.197 	"/>
</g>
</svg>
