<svg t="1506571015084" class="icon" style="" viewBox="0 0 1024 1024" version="1.1" xmlns="http://www.w3.org/2000/svg" p-id="2214" xmlns:xlink="http://www.w3.org/1999/xlink" width="16" height="16"><defs><style type="text/css"></style></defs><path d="M533.157888 132.08064c222.784512 0 404.042752 181.252096 404.042752 404.041728 0 222.784512-181.259264 404.041728-404.042752 404.041728-222.79168 0-404.043776-181.25824-404.043776-404.041728C129.114112 313.332736 310.366208 132.08064 533.157888 132.08064M533.157888 105.143296c-238.012416 0-430.98112 192.969728-430.98112 430.98112 0 238.034944 192.970752 430.977024 430.98112 430.977024 238.032896 0 430.976-192.94208 430.976-430.977024C964.133888 298.113024 771.190784 105.143296 533.157888 105.143296L533.157888 105.143296 533.157888 105.143296zM546.622464 549.588992 324.397056 549.588992l0-26.934272 195.288064 0L519.68512 239.823872l26.935296 0L546.622464 549.588992 546.622464 549.588992z" p-id="2215"></path></svg>